<svg width="23" height="20" viewBox="0 0 23 20" fill="none" xmlns="http://www.w3.org/2000/svg">
<mask id="path-1-inside-1_30_158" fill="white">
<path fill-rule="evenodd" clip-rule="evenodd" d="M20.2647 1.75533C17.9242 -0.585113 14.1296 -0.585109 11.7892 1.75534L11.01 2.53453L10.2308 1.75538C7.89038 -0.585065 4.09578 -0.585067 1.75533 1.75538C-0.585113 4.09582 -0.585109 7.89043 1.75534 10.2309L10.8637 19.3392L11.01 19.1929L11.1563 19.3392L20.2647 10.2308C22.6051 7.89038 22.6051 4.09578 20.2647 1.75533Z"/>
</mask>
<path fill-rule="evenodd" clip-rule="evenodd" d="M20.2647 1.75533C17.9242 -0.585113 14.1296 -0.585109 11.7892 1.75534L11.01 2.53453L10.2308 1.75538C7.89038 -0.585065 4.09578 -0.585067 1.75533 1.75538C-0.585113 4.09582 -0.585109 7.89043 1.75534 10.2309L10.8637 19.3392L11.01 19.1929L11.1563 19.3392L20.2647 10.2308C22.6051 7.89038 22.6051 4.09578 20.2647 1.75533Z" fill="black"/>
<path d="M11.7892 1.75534L12.8498 2.816V2.816L11.7892 1.75534ZM20.2647 1.75533L19.204 2.81599L19.204 2.81599L20.2647 1.75533ZM11.01 2.53453L9.94932 3.59519L11.01 4.65585L12.0706 3.59519L11.01 2.53453ZM10.2308 1.75538L11.2915 0.694719L10.2308 1.75538ZM1.75533 1.75538L2.81599 2.81604L1.75533 1.75538ZM1.75534 10.2309L0.694675 11.2915H0.694675L1.75534 10.2309ZM10.8637 19.3392L9.80302 20.3999L10.8637 21.4605L11.9243 20.3999L10.8637 19.3392ZM11.01 19.1929L12.0707 18.1322L11.01 17.0716L9.94936 18.1322L11.01 19.1929ZM11.1563 19.3392L10.0957 20.3998L11.1563 21.4605L12.217 20.3998L11.1563 19.3392ZM20.2647 10.2308L19.204 9.17017L20.2647 10.2308ZM12.8498 2.816C14.6045 1.06134 17.4494 1.06134 19.204 2.81599L21.3253 0.694672C18.3991 -2.23156 13.6547 -2.23155 10.7285 0.694675L12.8498 2.816ZM12.0706 3.59519L12.8498 2.816L10.7285 0.694675L9.94932 1.47387L12.0706 3.59519ZM9.17017 2.81604L9.94932 3.59519L12.0706 1.47387L11.2915 0.694719L9.17017 2.81604ZM2.81599 2.81604C4.57065 1.06138 7.41551 1.06138 9.17017 2.81604L11.2915 0.694719C8.36526 -2.23151 3.6209 -2.23151 0.694671 0.694718L2.81599 2.81604ZM2.816 9.17022C1.06134 7.41556 1.06133 4.57069 2.81599 2.81604L0.694671 0.694718C-2.23156 3.62095 -2.23155 8.36531 0.694675 11.2915L2.816 9.17022ZM11.9243 18.2786L2.816 9.17022L0.694675 11.2915L9.80302 20.3999L11.9243 18.2786ZM9.94936 18.1322L9.80302 18.2786L11.9243 20.3999L12.0707 20.2535L9.94936 18.1322ZM12.217 18.2785L12.0707 18.1322L9.94936 20.2535L10.0957 20.3998L12.217 18.2785ZM19.204 9.17017L10.0957 18.2785L12.217 20.3998L21.3253 11.2915L19.204 9.17017ZM19.204 2.81599C20.9587 4.57065 20.9587 7.41551 19.204 9.17017L21.3253 11.2915C24.2516 8.36526 24.2516 3.6209 21.3253 0.694671L19.204 2.81599Z" fill="#FF0000" mask="url(#path-1-inside-1_30_158)"/>
</svg>
