<svg width="13" height="21" viewBox="0 0 13 21" fill="none" xmlns="http://www.w3.org/2000/svg">
<mask id="path-1-inside-1_28_72" fill="white">
<path fill-rule="evenodd" clip-rule="evenodd" d="M6.51549 6.04572C8.50273 6.03874 10.1111 4.68804 10.1111 3.02288C10.1111 1.35339 8.49436 0 6.5 0C4.50564 0 2.88889 1.35339 2.88889 3.02288C2.88889 4.68804 4.49727 6.03874 6.48451 6.04572C2.90178 6.05408 0 8.96102 0 12.5457V20.5555H13V12.5457C13 8.96102 10.0982 6.05408 6.51549 6.04572Z"/>
</mask>
<path fill-rule="evenodd" clip-rule="evenodd" d="M6.51549 6.04572C8.50273 6.03874 10.1111 4.68804 10.1111 3.02288C10.1111 1.35339 8.49436 0 6.5 0C4.50564 0 2.88889 1.35339 2.88889 3.02288C2.88889 4.68804 4.49727 6.03874 6.48451 6.04572C2.90178 6.05408 0 8.96102 0 12.5457V20.5555H13V12.5457C13 8.96102 10.0982 6.05408 6.51549 6.04572Z" fill="white"/>
<path d="M6.51549 6.04572L6.51198 5.04573L6.51316 7.04572L6.51549 6.04572ZM6.48451 6.04572L6.48684 7.04572L6.48802 5.04573L6.48451 6.04572ZM0 20.5555H-1V21.5555H0V20.5555ZM13 20.5555V21.5555H14V20.5555H13ZM9.11111 3.02288C9.11111 3.97858 8.12155 5.04007 6.51198 5.04573L6.51901 7.04572C8.8839 7.0374 11.1111 5.3975 11.1111 3.02288H9.11111ZM6.5 1C8.11599 1 9.11111 2.06485 9.11111 3.02288H11.1111C11.1111 0.641928 8.87273 -1 6.5 -1V1ZM3.88889 3.02288C3.88889 2.06485 4.88401 1 6.5 1V-1C4.12727 -1 1.88889 0.641928 1.88889 3.02288H3.88889ZM6.48802 5.04573C4.87845 5.04007 3.88889 3.97858 3.88889 3.02288H1.88889C1.88889 5.3975 4.1161 7.0374 6.48099 7.04572L6.48802 5.04573ZM1 12.5457C1 9.51253 3.45536 7.05279 6.48684 7.04572L6.48218 5.04573C2.3482 5.05537 -1 8.40952 -1 12.5457H1ZM1 20.5555V12.5457H-1V20.5555H1ZM13 19.5555H0V21.5555H13V19.5555ZM12 12.5457V20.5555H14V12.5457H12ZM6.51316 7.04572C9.54464 7.05279 12 9.51252 12 12.5457H14C14 8.40952 10.6518 5.05537 6.51782 5.04573L6.51316 7.04572Z" fill="black" mask="url(#path-1-inside-1_28_72)"/>
</svg>
